<svg xmlns="http://www.w3.org/2000/svg" viewBox="0 0 1200 630" width="1200" height="630" role="img" aria-label="Blades and Ash Hair Studio">
  <rect width="1200" height="630" fill="#0E0E10"/>
  <rect x="40" y="40" width="1120" height="550" fill="none" stroke="#C8A24B" stroke-width="1.5" opacity="0.38"/>

  <!-- Mark -->
  <g transform="translate(540 92) scale(1.18)">
    <g fill="none" stroke="#C8A24B" stroke-linecap="round">
      <path d="M50 4 C42 -5 60 -9 49 -16" stroke-width="2" opacity="0.6"/>
      <path d="M50 5 C58 -1 47 -4 54 -12" stroke-width="1.4" opacity="0.45"/>
    </g>
    <path d="M63 2 C 55 18, 50 28, 47 39 C 41 60, 33 77, 23 90 L 30 91 C 41 77, 50 60, 54 40 C 57 28, 61 14, 63 2 Z" fill="#C8A24B"/>
    <path d="M37 2 C 45 18, 50 28, 53 39 C 59 60, 67 77, 77 90 L 70 91 C 59 77, 50 60, 46 40 C 43 28, 39 14, 37 2 Z" fill="#C8A24B"/>
    <path d="M35 60 Q50 65 65 60" fill="none" stroke="#C8A24B" stroke-width="4.6" stroke-linecap="round"/>
    <circle cx="50" cy="36" r="3.8" fill="#0E0E10" stroke="#C8A24B" stroke-width="2.4"/>
    <circle cx="24" cy="92" r="6.5" fill="none" stroke="#C8A24B" stroke-width="3"/>
    <circle cx="76" cy="92" r="6.5" fill="none" stroke="#C8A24B" stroke-width="3"/>
  </g>

  <text x="600" y="430" text-anchor="middle" font-family="Georgia, 'Times New Roman', serif" font-weight="600" font-size="82" letter-spacing="10" fill="#EDE7DB">BLADES<tspan dx="34" font-style="italic" fill="#C8A24B">&amp;</tspan><tspan dx="34">ASH</tspan></text>
  <text x="600" y="478" text-anchor="middle" font-family="Arial, sans-serif" font-weight="400" font-size="22" letter-spacing="16" fill="#9A938A">HAIR STUDIO</text>
  <text x="600" y="556" text-anchor="middle" font-family="Georgia, serif" font-style="italic" font-size="26" fill="#C8A24B">Sharp craft. Quiet luxury.</text>
</svg>
