<svg xmlns="http://www.w3.org/2000/svg" viewBox="0 0 512 512" width="512" height="512" role="img" aria-label="Blades and Ash icon">
  <!-- Obsidian badge background so the gold mark reads on white checkout pages -->
  <rect x="0" y="0" width="512" height="512" rx="96" fill="#0E0E10"/>
  <rect x="16" y="16" width="480" height="480" rx="82" fill="none" stroke="#C8A24B" stroke-width="3" opacity="0.5"/>
  <!-- Crossed-shear 'A' mark, centered -->
  <g transform="translate(135 145) scale(2.42)">
    <g fill="none" stroke="#C8A24B" stroke-linecap="round">
      <path d="M50 4 C42 -5 60 -9 49 -16" stroke-width="2" opacity="0.65"/>
      <path d="M50 5 C58 -1 47 -4 54 -12" stroke-width="1.4" opacity="0.5"/>
    </g>
    <path d="M63 2 C 55 18, 50 28, 47 39 C 41 60, 33 77, 23 90 L 30 91 C 41 77, 50 60, 54 40 C 57 28, 61 14, 63 2 Z" fill="#C8A24B"/>
    <path d="M37 2 C 45 18, 50 28, 53 39 C 59 60, 67 77, 77 90 L 70 91 C 59 77, 50 60, 46 40 C 43 28, 39 14, 37 2 Z" fill="#C8A24B"/>
    <path d="M35 60 Q50 65 65 60" fill="none" stroke="#C8A24B" stroke-width="4.6" stroke-linecap="round"/>
    <circle cx="50" cy="36" r="3.8" fill="#0E0E10" stroke="#C8A24B" stroke-width="2.4"/>
    <circle cx="24" cy="92" r="6.5" fill="none" stroke="#C8A24B" stroke-width="3"/>
    <circle cx="76" cy="92" r="6.5" fill="none" stroke="#C8A24B" stroke-width="3"/>
  </g>
</svg>
