<svg xmlns="http://www.w3.org/2000/svg" viewBox="0 0 100 100" width="100" height="100" role="img" aria-label="Blades and Ash">
  <rect x="0" y="0" width="100" height="100" rx="22" fill="#0E0E10"/>
  <g transform="translate(26 26) scale(0.46)">
    <path d="M63 2 C 55 18, 50 28, 47 39 C 41 60, 33 77, 23 90 L 30 91 C 41 77, 50 60, 54 40 C 57 28, 61 14, 63 2 Z" fill="#C8A24B"/>
    <path d="M37 2 C 45 18, 50 28, 53 39 C 59 60, 67 77, 77 90 L 70 91 C 59 77, 50 60, 46 40 C 43 28, 39 14, 37 2 Z" fill="#C8A24B"/>
    <path d="M35 60 Q50 65 65 60" fill="none" stroke="#C8A24B" stroke-width="4.6" stroke-linecap="round"/>
    <circle cx="50" cy="36" r="3.8" fill="#0E0E10" stroke="#C8A24B" stroke-width="2.4"/>
    <circle cx="24" cy="92" r="6.5" fill="none" stroke="#C8A24B" stroke-width="3"/>
    <circle cx="76" cy="92" r="6.5" fill="none" stroke="#C8A24B" stroke-width="3"/>
  </g>
</svg>
